<svg xmlns="http://www.w3.org/2000/svg" width="26" height="22" viewBox="0 0 26 22" fill="none"><div xmlns="" id="in-page-channel-node-id" data-channel-name="in_page_channel_XnCX58"/>
<path fill-rule="evenodd" clip-rule="evenodd" d="M20.3845 0.72518L0.828647 8.40555C-0.0963528 8.76805 0.0286474 10.1181 1.00365 10.3181L6.65377 11.4523L20.3845 0.72518ZM8.9774 12.8095L10.4562 14.1104L8.97752 12.8094L25.2491 0.097168C25.2728 0.227876 25.2703 0.362478 25.2411 0.493051L20.5411 21.0181C20.5023 21.1871 20.4202 21.3432 20.3029 21.4709C20.1855 21.5986 20.037 21.6936 19.8718 21.7466C19.7066 21.7995 19.5305 21.8086 19.3608 21.7729C19.1911 21.7372 19.0335 21.658 18.9036 21.5431L13.2783 16.5935L9.37852 20.4933C9.23938 20.6346 9.06138 20.7313 8.86714 20.7712C8.6729 20.8111 8.47119 20.7923 8.28764 20.7173C8.10409 20.6423 7.94699 20.5144 7.83631 20.3498C7.72562 20.1853 7.66635 19.9916 7.66602 19.7933V13.834L8.9774 12.8095Z" fill="#F66D65"/>
</svg>